<svg xmlns="http://www.w3.org/2000/svg" viewBox="0 0 700.13 299.27"><defs><style>.cls-1{fill:#707070;}.cls-2{fill:none;stroke-width:2px;}.cls-2,.cls-3,.cls-4{stroke:#707070;}.cls-2,.cls-3,.cls-4,.cls-5{stroke-miterlimit:10;}.cls-3,.cls-4,.cls-5{fill:#fff;}.cls-3{stroke-width:2.42px;}.cls-4,.cls-5{stroke-width:2.94px;}.cls-5{stroke:#71c492;}</style></defs><title>LearningCenter_6298_How does serverless JavaScript work_MasterFile(img1-3)_Approved</title><g id="Art"><text></text><path class="cls-1" d="M312.71,193.41h-6.14V182h6.14v1.58h-4.37v3.11h4.09v1.56h-4.09v3.59h4.37Z"/><path class="cls-1" d="M317.3,193.57a2.8,2.8,0,0,1-2.4-1.17,6.73,6.73,0,0,1,0-6.6,2.83,2.83,0,0,1,2.42-1.18,2.77,2.77,0,0,1,2.46,1.26h.09a12.56,12.56,0,0,1-.13-1.47v-3.15h1.76v12.15h-1.37l-.3-1.13h-.09A2.72,2.72,0,0,1,317.3,193.57Zm.46-1.48a1.86,1.86,0,0,0,1.57-.64,3.47,3.47,0,0,0,.51-2.07v-.25a4,4,0,0,0-.51-2.32,1.83,1.83,0,0,0-1.58-.69,1.59,1.59,0,0,0-1.42.78,4.23,4.23,0,0,0-.49,2.24,4.09,4.09,0,0,0,.48,2.19A1.58,1.58,0,0,0,317.76,192.09Z"/><path class="cls-1" d="M330.73,184.77v1l-1.4.28a2.46,2.46,0,0,1,.32.67,2.84,2.84,0,0,1,.12.84,2.65,2.65,0,0,1-.87,2.1,3.56,3.56,0,0,1-2.41.77,4,4,0,0,1-.72-.06,1,1,0,0,0-.56.85.49.49,0,0,0,.26.45,2.18,2.18,0,0,0,1,.15h1.43a3.06,3.06,0,0,1,2.07.61,2.18,2.18,0,0,1,.7,1.76,2.57,2.57,0,0,1-1.15,2.26,5.79,5.79,0,0,1-3.32.8,4.38,4.38,0,0,1-2.56-.63,2,2,0,0,1-.89-1.78,2,2,0,0,1,.48-1.34,2.55,2.55,0,0,1,1.34-.75,1.33,1.33,0,0,1-.57-.51,1.31,1.31,0,0,1-.23-.73,1.34,1.34,0,0,1,.26-.82,3.09,3.09,0,0,1,.77-.66,2.33,2.33,0,0,1-1-.94,2.86,2.86,0,0,1-.4-1.53,2.82,2.82,0,0,1,.84-2.18,3.44,3.44,0,0,1,2.4-.77,4.56,4.56,0,0,1,.73,0,5.09,5.09,0,0,1,.58.1Zm-6.45,10a1,1,0,0,0,.51.91,2.64,2.64,0,0,0,1.43.32,4.07,4.07,0,0,0,2.12-.43,1.27,1.27,0,0,0,.7-1.14.88.88,0,0,0-.38-.8,2.93,2.93,0,0,0-1.42-.24h-1.32a1.87,1.87,0,0,0-1.2.37A1.27,1.27,0,0,0,324.28,194.76Zm.75-7.19a1.77,1.77,0,0,0,.4,1.25,1.45,1.45,0,0,0,1.14.44c1,0,1.51-.57,1.51-1.7a2,2,0,0,0-.37-1.31,1.4,1.4,0,0,0-1.14-.45,1.43,1.43,0,0,0-1.15.45A2,2,0,0,0,325,187.57Z"/><path class="cls-1" d="M335.49,193.57a3.85,3.85,0,0,1-3-1.18,4.59,4.59,0,0,1-1.08-3.23,5.07,5.07,0,0,1,1-3.33,3.35,3.35,0,0,1,2.75-1.21,3.28,3.28,0,0,1,2.57,1,4.08,4.08,0,0,1,.94,2.86v1h-5.47a2.92,2.92,0,0,0,.65,1.93,2.17,2.17,0,0,0,1.71.68,5.84,5.84,0,0,0,1.36-.15,6.24,6.24,0,0,0,1.34-.48V193a4.86,4.86,0,0,1-1.29.46A7.38,7.38,0,0,1,335.49,193.57Zm-.32-7.56a1.7,1.7,0,0,0-1.33.55,2.66,2.66,0,0,0-.6,1.62H337a2.52,2.52,0,0,0-.49-1.62A1.64,1.64,0,0,0,335.17,186Z"/><path class="cls-1" d="M350.75,190.31a2.91,2.91,0,0,1-1.05,2.39,4.36,4.36,0,0,1-2.88.87,6.62,6.62,0,0,1-3-.6V191.2a7.64,7.64,0,0,0,1.58.58,6.38,6.38,0,0,0,1.55.21,2.4,2.4,0,0,0,1.56-.42,1.41,1.41,0,0,0,.5-1.13,1.45,1.45,0,0,0-.46-1.09,6.91,6.91,0,0,0-1.9-1,5,5,0,0,1-2.09-1.45,3.13,3.13,0,0,1-.61-1.95,2.81,2.81,0,0,1,1-2.25,3.87,3.87,0,0,1,2.59-.82,7.31,7.31,0,0,1,3.11.72l-.57,1.52a6.4,6.4,0,0,0-2.58-.64,1.93,1.93,0,0,0-1.31.39,1.37,1.37,0,0,0-.44,1.05,1.53,1.53,0,0,0,.18.76,1.81,1.81,0,0,0,.58.6,10.6,10.6,0,0,0,1.47.74,7.52,7.52,0,0,1,1.75,1,2.81,2.81,0,0,1,.82,1A3.27,3.27,0,0,1,350.75,190.31Z"/><path class="cls-1" d="M356.18,193.57a3.85,3.85,0,0,1-3-1.18,4.59,4.59,0,0,1-1.08-3.23,5.07,5.07,0,0,1,1-3.33,3.39,3.39,0,0,1,2.76-1.21,3.25,3.25,0,0,1,2.56,1,4.08,4.08,0,0,1,.95,2.86v1H353.9a2.92,2.92,0,0,0,.64,1.93,2.21,2.21,0,0,0,1.72.68,5.82,5.82,0,0,0,1.35-.15,6.12,6.12,0,0,0,1.35-.48V193a5.13,5.13,0,0,1-1.29.46A7.51,7.51,0,0,1,356.18,193.57Zm-.32-7.56a1.72,1.72,0,0,0-1.34.55,2.72,2.72,0,0,0-.59,1.62h3.72a2.47,2.47,0,0,0-.49-1.62A1.62,1.62,0,0,0,355.86,186Z"/><path class="cls-1" d="M365.35,184.62a3.58,3.58,0,0,1,.87.08l-.18,1.71a2.76,2.76,0,0,0-.77-.1,2.16,2.16,0,0,0-1.69.72,2.65,2.65,0,0,0-.65,1.87v4.51h-1.75v-8.64h1.37l.23,1.53h.09a3.28,3.28,0,0,1,1.06-1.23A2.47,2.47,0,0,1,365.35,184.62Z"/><path class="cls-1" d="M370.05,193.41l-3.11-8.64h1.84l1.67,5a10.85,10.85,0,0,1,.52,2H371a12.87,12.87,0,0,1,.52-2l1.67-5h1.85l-3.13,8.64Z"/><path class="cls-1" d="M379.59,193.57a3.85,3.85,0,0,1-3-1.18,4.63,4.63,0,0,1-1.08-3.23,5.07,5.07,0,0,1,1-3.33,3.35,3.35,0,0,1,2.75-1.21,3.28,3.28,0,0,1,2.57,1,4.08,4.08,0,0,1,.94,2.86v1h-5.47a2.92,2.92,0,0,0,.65,1.93,2.17,2.17,0,0,0,1.71.68A5.84,5.84,0,0,0,381,192a6.24,6.24,0,0,0,1.34-.48V193a4.86,4.86,0,0,1-1.29.46A7.38,7.38,0,0,1,379.59,193.57Zm-.32-7.56a1.7,1.7,0,0,0-1.33.55,2.72,2.72,0,0,0-.6,1.62h3.73a2.52,2.52,0,0,0-.49-1.62A1.64,1.64,0,0,0,379.27,186Z"/><path class="cls-1" d="M388.76,184.62a3.58,3.58,0,0,1,.87.08l-.17,1.71a2.8,2.8,0,0,0-.77-.1,2.19,2.19,0,0,0-1.7.72,2.69,2.69,0,0,0-.65,1.87v4.51H384.6v-8.64H386l.23,1.53h.09a3.39,3.39,0,0,1,1.07-1.23A2.46,2.46,0,0,1,388.76,184.62Z"/><path class="cls-1" d="M279.53,210a12.75,12.75,0,0,1,.57-3.87,10,10,0,0,1,1.66-3.17h1.52a11.45,11.45,0,0,0-1.58,3.3,13.05,13.05,0,0,0-.55,3.73,12.68,12.68,0,0,0,.55,3.69,11.59,11.59,0,0,0,1.57,3.24h-1.51a9.29,9.29,0,0,1-1.66-3.11A12.36,12.36,0,0,1,279.53,210Z"/><path class="cls-1" d="M288.47,205.62a3.58,3.58,0,0,1,.87.08l-.17,1.71a2.88,2.88,0,0,0-.78-.1,2.17,2.17,0,0,0-1.69.72,2.65,2.65,0,0,0-.65,1.87v4.51H284.3v-8.64h1.37l.23,1.53H286a3.37,3.37,0,0,1,1.06-1.23A2.47,2.47,0,0,1,288.47,205.62Z"/><path class="cls-1" d="M296.5,214.41l-.24-1.13h-.09a2.56,2.56,0,0,1-1,.95,3.32,3.32,0,0,1-1.54.34,2.91,2.91,0,0,1-2.22-.78,3.35,3.35,0,0,1-.74-2.37v-5.65h1.76v5.33a2.39,2.39,0,0,0,.39,1.49,1.43,1.43,0,0,0,1.21.5,1.85,1.85,0,0,0,1.61-.7,4,4,0,0,0,.52-2.31v-4.31h1.75v8.64Z"/><path class="cls-1" d="M307.32,214.41h-1.75V209.1a2.46,2.46,0,0,0-.38-1.49,1.45,1.45,0,0,0-1.22-.49,1.87,1.87,0,0,0-1.61.69,3.84,3.84,0,0,0-.52,2.3v4.3H300.1v-8.64h1.37l.24,1.14h.09a2.57,2.57,0,0,1,1.05-1,3.46,3.46,0,0,1,1.52-.33q3,0,2.95,3.16Z"/><path class="cls-1" d="M316.73,214.41H315V209.1a2.39,2.39,0,0,0-.38-1.49,1.43,1.43,0,0,0-1.21-.49,1.88,1.88,0,0,0-1.62.69,3.93,3.93,0,0,0-.51,2.3v4.3H309.5v-8.64h1.37l.24,1.14h.09a2.54,2.54,0,0,1,1.06-1,3.41,3.41,0,0,1,1.51-.33q3,0,3,3.16Z"/><path class="cls-1" d="M318.78,203.48a1,1,0,0,1,.25-.75,1,1,0,0,1,.73-.27.94.94,0,0,1,.72.27,1.2,1.2,0,0,1,0,1.49.94.94,0,0,1-.72.27,1,1,0,0,1-.73-.27A1,1,0,0,1,318.78,203.48Zm1.84,10.93h-1.74v-8.64h1.74Z"/><path class="cls-1" d="M330.07,214.41h-1.75V209.1a2.39,2.39,0,0,0-.39-1.49,1.43,1.43,0,0,0-1.21-.49,1.88,1.88,0,0,0-1.62.69,3.93,3.93,0,0,0-.51,2.3v4.3h-1.74v-8.64h1.36l.25,1.14h.09a2.45,2.45,0,0,1,1.05-1,3.41,3.41,0,0,1,1.51-.33q3,0,3,3.16Z"/><path class="cls-1" d="M339.22,205.77v1l-1.4.28a2.46,2.46,0,0,1,.32.67,2.84,2.84,0,0,1,.12.84,2.65,2.65,0,0,1-.87,2.1,3.57,3.57,0,0,1-2.42.77,3.84,3.84,0,0,1-.71-.06,1,1,0,0,0-.56.85.49.49,0,0,0,.26.45,2.18,2.18,0,0,0,1,.15h1.43a3.06,3.06,0,0,1,2.07.61,2.18,2.18,0,0,1,.7,1.76,2.57,2.57,0,0,1-1.15,2.26,5.81,5.81,0,0,1-3.32.8,4.41,4.41,0,0,1-2.57-.63,2.06,2.06,0,0,1-.88-1.78,2,2,0,0,1,.48-1.34,2.55,2.55,0,0,1,1.34-.75,1.33,1.33,0,0,1-.57-.51,1.24,1.24,0,0,1-.23-.73,1.34,1.34,0,0,1,.26-.82,3.09,3.09,0,0,1,.77-.66,2.4,2.4,0,0,1-1-.94,3,3,0,0,1-.39-1.53,2.82,2.82,0,0,1,.84-2.18,3.44,3.44,0,0,1,2.4-.77,4.64,4.64,0,0,1,.73,0,5.09,5.09,0,0,1,.58.1Zm-6.45,10a1,1,0,0,0,.51.91,2.61,2.61,0,0,0,1.43.32,4.07,4.07,0,0,0,2.12-.43,1.27,1.27,0,0,0,.7-1.14.88.88,0,0,0-.38-.8,3,3,0,0,0-1.43-.24H334.4a1.84,1.84,0,0,0-1.19.37A1.27,1.27,0,0,0,332.77,215.76Zm.75-7.19a1.77,1.77,0,0,0,.4,1.25,1.45,1.45,0,0,0,1.14.44c1,0,1.51-.57,1.51-1.7a2,2,0,0,0-.37-1.31,1.4,1.4,0,0,0-1.14-.45,1.43,1.43,0,0,0-1.15.45A2,2,0,0,0,333.52,208.57Z"/><path class="cls-1" d="M349.9,212a2.28,2.28,0,0,1-.88,1.94,4,4,0,0,1-2.51.68,5.64,5.64,0,0,1-2.63-.52v-1.59a6.15,6.15,0,0,0,2.69.7c1.08,0,1.61-.34,1.61-1a.84.84,0,0,0-.17-.55,2.42,2.42,0,0,0-.59-.45,9.18,9.18,0,0,0-1.14-.53,5.16,5.16,0,0,1-1.91-1.16,2.16,2.16,0,0,1-.5-1.5,2,2,0,0,1,.85-1.72,3.84,3.84,0,0,1,2.31-.61,6.34,6.34,0,0,1,2.74.61l-.57,1.39A5.74,5.74,0,0,0,347,207c-.92,0-1.38.28-1.38.83a.85.85,0,0,0,.36.69,8.25,8.25,0,0,0,1.57.77,6.65,6.65,0,0,1,1.47.76,2.23,2.23,0,0,1,.69.79A2.38,2.38,0,0,1,349.9,212Z"/><path class="cls-1" d="M355.2,214.57a3.85,3.85,0,0,1-3-1.18,4.59,4.59,0,0,1-1.08-3.23,5.07,5.07,0,0,1,1-3.33,3.35,3.35,0,0,1,2.75-1.21,3.28,3.28,0,0,1,2.57,1,4.08,4.08,0,0,1,.94,2.86v1h-5.47a2.92,2.92,0,0,0,.65,1.93,2.17,2.17,0,0,0,1.71.68,5.84,5.84,0,0,0,1.36-.15,6.24,6.24,0,0,0,1.34-.48V214a4.86,4.86,0,0,1-1.29.46A7.38,7.38,0,0,1,355.2,214.57Zm-.32-7.56a1.7,1.7,0,0,0-1.33.55,2.66,2.66,0,0,0-.6,1.62h3.73a2.52,2.52,0,0,0-.49-1.62A1.64,1.64,0,0,0,354.88,207Z"/><path class="cls-1" d="M364.37,205.62a3.58,3.58,0,0,1,.87.08l-.17,1.71a2.86,2.86,0,0,0-.77-.1,2.18,2.18,0,0,0-1.7.72,2.69,2.69,0,0,0-.65,1.87v4.51h-1.74v-8.64h1.36l.23,1.53h.09a3.39,3.39,0,0,1,1.07-1.23A2.46,2.46,0,0,1,364.37,205.62Z"/><path class="cls-1" d="M369.08,214.41,366,205.77h1.84l1.67,5a10.12,10.12,0,0,1,.52,2h.06a14.13,14.13,0,0,1,.52-2l1.67-5h1.85L371,214.41Z"/><path class="cls-1" d="M378.62,214.57a3.85,3.85,0,0,1-3-1.18,4.59,4.59,0,0,1-1.08-3.23,5.07,5.07,0,0,1,1-3.33,3.39,3.39,0,0,1,2.76-1.21,3.25,3.25,0,0,1,2.56,1,4.08,4.08,0,0,1,.95,2.86v1h-5.47a2.92,2.92,0,0,0,.64,1.93,2.21,2.21,0,0,0,1.72.68,5.82,5.82,0,0,0,1.35-.15,6.12,6.12,0,0,0,1.35-.48V214a5.13,5.13,0,0,1-1.29.46A7.51,7.51,0,0,1,378.62,214.57ZM378.3,207a1.72,1.72,0,0,0-1.34.55,2.72,2.72,0,0,0-.59,1.62h3.72a2.47,2.47,0,0,0-.49-1.62A1.61,1.61,0,0,0,378.3,207Z"/><path class="cls-1" d="M387.79,205.62a3.58,3.58,0,0,1,.87.08l-.17,1.71a2.88,2.88,0,0,0-.78-.1A2.17,2.17,0,0,0,386,208a2.65,2.65,0,0,0-.65,1.87v4.51h-1.75v-8.64H385l.23,1.53h.09a3.37,3.37,0,0,1,1.06-1.23A2.47,2.47,0,0,1,387.79,205.62Z"/><path class="cls-1" d="M391.74,214.41H390V202.26h1.74Z"/><path class="cls-1" d="M397.62,214.57a3.83,3.83,0,0,1-3-1.18,4.59,4.59,0,0,1-1.08-3.23,5.07,5.07,0,0,1,1-3.33,3.38,3.38,0,0,1,2.75-1.21,3.27,3.27,0,0,1,2.57,1,4.08,4.08,0,0,1,.94,2.86v1h-5.47a2.92,2.92,0,0,0,.65,1.93,2.19,2.19,0,0,0,1.71.68,5.84,5.84,0,0,0,1.36-.15,6.12,6.12,0,0,0,1.35-.48V214a5.06,5.06,0,0,1-1.3.46A7.38,7.38,0,0,1,397.62,214.57ZM397.3,207a1.7,1.7,0,0,0-1.33.55,2.79,2.79,0,0,0-.6,1.62h3.73a2.47,2.47,0,0,0-.49-1.62A1.63,1.63,0,0,0,397.3,207Z"/><path class="cls-1" d="M408.19,212a2.3,2.3,0,0,1-.87,1.94,4,4,0,0,1-2.51.68,5.64,5.64,0,0,1-2.63-.52v-1.59a6.15,6.15,0,0,0,2.69.7c1.07,0,1.61-.34,1.61-1a.85.85,0,0,0-.18-.55,2.33,2.33,0,0,0-.58-.45,10.82,10.82,0,0,0-1.14-.53,5.31,5.31,0,0,1-1.92-1.16,2.21,2.21,0,0,1-.5-1.5,2,2,0,0,1,.85-1.72,3.88,3.88,0,0,1,2.31-.61,6.27,6.27,0,0,1,2.74.61l-.56,1.39a5.78,5.78,0,0,0-2.24-.58c-.92,0-1.38.28-1.38.83a.85.85,0,0,0,.36.69,8.59,8.59,0,0,0,1.57.77,6.77,6.77,0,0,1,1.48.76,2.3,2.3,0,0,1,.68.79A2.38,2.38,0,0,1,408.19,212Z"/><path class="cls-1" d="M415.48,212a2.3,2.3,0,0,1-.87,1.94,4,4,0,0,1-2.51.68,5.64,5.64,0,0,1-2.63-.52v-1.59a6.15,6.15,0,0,0,2.69.7c1.07,0,1.61-.34,1.61-1a.85.85,0,0,0-.18-.55,2.33,2.33,0,0,0-.58-.45,10.82,10.82,0,0,0-1.14-.53,5.31,5.31,0,0,1-1.92-1.16,2.21,2.21,0,0,1-.5-1.5,2,2,0,0,1,.85-1.72,3.88,3.88,0,0,1,2.31-.61,6.27,6.27,0,0,1,2.74.61l-.56,1.39a5.78,5.78,0,0,0-2.24-.58c-.92,0-1.38.28-1.38.83a.85.85,0,0,0,.36.69,8.59,8.59,0,0,0,1.57.77,6.77,6.77,0,0,1,1.48.76,2.2,2.2,0,0,1,.68.79A2.38,2.38,0,0,1,415.48,212Z"/><path class="cls-1" d="M310.13,238.6a3.27,3.27,0,0,1-1.21-.19v-1.57A4.21,4.21,0,0,0,310,237c1,0,1.46-.65,1.46-1.94V224h1.78v11a4.06,4.06,0,0,1-.79,2.68A2.91,2.91,0,0,1,310.13,238.6Z"/><path class="cls-1" d="M320.77,235.41l-.35-1.2h-.06a3.36,3.36,0,0,1-1.2,1.08,3.59,3.59,0,0,1-1.54.28,2.52,2.52,0,0,1-1.89-.69,2.63,2.63,0,0,1-.68-1.94,2.34,2.34,0,0,1,.95-2,5.2,5.2,0,0,1,2.87-.74l1.42-.05v-.46a1.85,1.85,0,0,0-.37-1.24,1.48,1.48,0,0,0-1.14-.41,3.79,3.79,0,0,0-1.21.2,7.83,7.83,0,0,0-1.11.46l-.57-1.31a5.82,5.82,0,0,1,1.46-.56,6.29,6.29,0,0,1,1.5-.19,3.45,3.45,0,0,1,2.37.72,2.89,2.89,0,0,1,.79,2.25v5.82Zm-2.6-1.25a1.94,1.94,0,0,0,2.1-2.12v-.75l-1,.05a3.46,3.46,0,0,0-1.8.43,1.35,1.35,0,0,0-.56,1.18,1.19,1.19,0,0,0,.33.9A1.36,1.36,0,0,0,318.17,234.16Z"/><path class="cls-1" d="M326,235.41l-3.11-8.64h1.84l1.67,5a10.12,10.12,0,0,1,.52,2H327a12.87,12.87,0,0,1,.52-2l1.67-5H331l-3.13,8.64Z"/><path class="cls-1" d="M337.16,235.41l-.35-1.2h-.06a3.34,3.34,0,0,1-1.19,1.08,3.64,3.64,0,0,1-1.55.28,2.55,2.55,0,0,1-1.89-.69,2.63,2.63,0,0,1-.68-1.94,2.34,2.34,0,0,1,.95-2,5.23,5.23,0,0,1,2.87-.74l1.42-.05v-.46a1.85,1.85,0,0,0-.37-1.24,1.48,1.48,0,0,0-1.14-.41,3.79,3.79,0,0,0-1.21.2,7.83,7.83,0,0,0-1.11.46l-.57-1.31a5.89,5.89,0,0,1,1.47-.56,6.15,6.15,0,0,1,1.49-.19,3.43,3.43,0,0,1,2.37.72,2.89,2.89,0,0,1,.8,2.25v5.82Zm-2.6-1.25a1.94,1.94,0,0,0,2.1-2.12v-.75l-1.05.05a3.42,3.42,0,0,0-1.79.43,1.32,1.32,0,0,0-.56,1.18,1.18,1.18,0,0,0,.32.9A1.37,1.37,0,0,0,334.56,234.16Z"/><path class="cls-1" d="M347.13,232.31a2.91,2.91,0,0,1-1.05,2.39,4.36,4.36,0,0,1-2.88.87,6.65,6.65,0,0,1-3-.6V233.2a7.64,7.64,0,0,0,1.58.58,6.46,6.46,0,0,0,1.56.21,2.37,2.37,0,0,0,1.55-.42,1.41,1.41,0,0,0,.5-1.13,1.45,1.45,0,0,0-.46-1.09,6.91,6.91,0,0,0-1.9-1,5,5,0,0,1-2.09-1.45,3.13,3.13,0,0,1-.61-1.95,2.81,2.81,0,0,1,1-2.25,3.88,3.88,0,0,1,2.6-.82,7.3,7.3,0,0,1,3.1.72l-.57,1.52a6.4,6.4,0,0,0-2.58-.64,2,2,0,0,0-1.31.39,1.37,1.37,0,0,0-.44,1.05,1.53,1.53,0,0,0,.18.76,1.92,1.92,0,0,0,.58.6,11.23,11.23,0,0,0,1.47.74,7.52,7.52,0,0,1,1.75,1,2.71,2.71,0,0,1,.82,1A3.27,3.27,0,0,1,347.13,232.31Z"/><path class="cls-1" d="M352.28,235.57a3.51,3.51,0,0,1-2.83-1.14,6,6,0,0,1,.05-6.64,3.65,3.65,0,0,1,2.92-1.17,5.22,5.22,0,0,1,2.34.51l-.53,1.47a5,5,0,0,0-1.82-.45c-1.42,0-2.13,1-2.13,3a3.67,3.67,0,0,0,.53,2.18,1.78,1.78,0,0,0,1.55.73,4.26,4.26,0,0,0,2.21-.61V235a3.66,3.66,0,0,1-1,.42A5.89,5.89,0,0,1,352.28,235.57Z"/><path class="cls-1" d="M360.4,226.62a3.58,3.58,0,0,1,.87.08l-.17,1.71a2.88,2.88,0,0,0-.78-.1,2.17,2.17,0,0,0-1.69.72,2.69,2.69,0,0,0-.65,1.87v4.51h-1.74v-8.64h1.36l.23,1.53h.09a3.3,3.3,0,0,1,1.07-1.23A2.41,2.41,0,0,1,360.4,226.62Z"/><path class="cls-1" d="M362.5,224.48a1,1,0,0,1,.26-.75,1,1,0,0,1,.73-.27.94.94,0,0,1,.72.27,1.24,1.24,0,0,1,0,1.49.94.94,0,0,1-.72.27,1,1,0,0,1-.73-.27A1,1,0,0,1,362.5,224.48Zm1.85,10.93h-1.74v-8.64h1.74Z"/><path class="cls-1" d="M370.74,235.57a2.81,2.81,0,0,1-2.42-1.18h-.1c.06.73.1,1.17.1,1.33v3.54h-1.74V226.77H368c0,.17.12.55.24,1.16h.09a2.7,2.7,0,0,1,2.45-1.31,2.79,2.79,0,0,1,2.39,1.17,6.71,6.71,0,0,1,0,6.59A2.81,2.81,0,0,1,370.74,235.57Zm-.42-7.45a1.76,1.76,0,0,0-1.52.64,3.46,3.46,0,0,0-.48,2.05v.27a4.26,4.26,0,0,0,.47,2.28,1.73,1.73,0,0,0,1.56.71,1.56,1.56,0,0,0,1.39-.78,4.17,4.17,0,0,0,.49-2.23,4,4,0,0,0-.49-2.2A1.6,1.6,0,0,0,370.32,228.12Z"/><path class="cls-1" d="M378.89,234.09a4.08,4.08,0,0,0,1.28-.21v1.38a3.23,3.23,0,0,1-.75.22,4.83,4.83,0,0,1-.94.09c-1.66,0-2.48-.92-2.48-2.75v-4.66h-1.12v-.81l1.2-.67.59-1.83h1.08v1.92h2.34v1.39h-2.34v4.63a1.34,1.34,0,0,0,.31,1A1.13,1.13,0,0,0,378.89,234.09Z"/><path class="cls-1" d="M384.36,231a12.15,12.15,0,0,1-.58,3.83,9.19,9.19,0,0,1-1.66,3.09h-1.5a11.79,11.79,0,0,0,1.57-3.25,12.87,12.87,0,0,0,0-7.41,11.31,11.31,0,0,0-1.58-3.3h1.52a9.65,9.65,0,0,1,1.67,3.18A12.73,12.73,0,0,1,384.36,231Z"/><path class="cls-1" d="M583.2,188.69a6.23,6.23,0,0,1-1.39,4.33,5,5,0,0,1-3.95,1.55,5.08,5.08,0,0,1-4-1.53,6.28,6.28,0,0,1-1.39-4.37,6.19,6.19,0,0,1,1.4-4.34,5.13,5.13,0,0,1,4-1.52,5,5,0,0,1,3.93,1.54A6.24,6.24,0,0,1,583.2,188.69Zm-8.71,0a5.13,5.13,0,0,0,.85,3.2,3.46,3.46,0,0,0,5,0,6.48,6.48,0,0,0,0-6.4,3,3,0,0,0-2.5-1.09,3.05,3.05,0,0,0-2.54,1.09A5.08,5.08,0,0,0,574.49,188.69Z"/><path class="cls-1" d="M589.44,185.62a4,4,0,0,1,.92.08l-.18,1.71a3.1,3.1,0,0,0-.81-.1,2.36,2.36,0,0,0-1.79.72,2.62,2.62,0,0,0-.68,1.87v4.51h-1.84v-8.64h1.44l.24,1.53h.1a3.33,3.33,0,0,1,1.12-1.23A2.65,2.65,0,0,1,589.44,185.62Z"/><path class="cls-1" d="M591.42,183.48a1,1,0,0,1,.27-.75,1,1,0,0,1,.77-.27,1,1,0,0,1,.75.27,1.16,1.16,0,0,1,0,1.49,1,1,0,0,1-.75.27,1,1,0,0,1-.77-.27A1,1,0,0,1,591.42,183.48Zm1.94,10.93h-1.83v-8.64h1.83Z"/><path class="cls-1" d="M602.81,185.77v1l-1.48.28a2.21,2.21,0,0,1,.34.67,2.55,2.55,0,0,1,.13.84,2.59,2.59,0,0,1-.92,2.1,3.87,3.87,0,0,1-2.54.77,4.22,4.22,0,0,1-.75-.06,1,1,0,0,0-.59.85.48.48,0,0,0,.27.45,2.41,2.41,0,0,0,1,.15h1.51a3.32,3.32,0,0,1,2.17.61,2.12,2.12,0,0,1,.74,1.76,2.54,2.54,0,0,1-1.21,2.26,6.36,6.36,0,0,1-3.5.8,4.8,4.8,0,0,1-2.69-.63,2,2,0,0,1-.93-1.78,1.92,1.92,0,0,1,.5-1.34,2.74,2.74,0,0,1,1.41-.75,1.4,1.4,0,0,1-.6-.51,1.25,1.25,0,0,1-.24-.73,1.28,1.28,0,0,1,.27-.82,3.38,3.38,0,0,1,.81-.66,2.47,2.47,0,0,1-1.09-.94,2.87,2.87,0,0,1-.41-1.53,2.74,2.74,0,0,1,.88-2.18,3.77,3.77,0,0,1,2.53-.77,5.14,5.14,0,0,1,.77,0,5.91,5.91,0,0,1,.61.1Zm-6.79,10a1,1,0,0,0,.53.91,2.9,2.9,0,0,0,1.51.32,4.49,4.49,0,0,0,2.23-.43,1.28,1.28,0,0,0,.74-1.14.86.86,0,0,0-.41-.8,3.16,3.16,0,0,0-1.49-.24h-1.39a2,2,0,0,0-1.26.37A1.23,1.23,0,0,0,596,195.76Zm.79-7.19a1.73,1.73,0,0,0,.42,1.25,1.56,1.56,0,0,0,1.2.44c1.06,0,1.59-.57,1.59-1.7a1.92,1.92,0,0,0-.4-1.31,1.5,1.5,0,0,0-1.19-.45,1.54,1.54,0,0,0-1.21.45A1.87,1.87,0,0,0,596.81,188.57Z"/><path class="cls-1" d="M603.87,183.48a1,1,0,0,1,.27-.75,1,1,0,0,1,.77-.27,1,1,0,0,1,.75.27,1.16,1.16,0,0,1,0,1.49,1,1,0,0,1-.75.27,1,1,0,0,1-.77-.27A1,1,0,0,1,603.87,183.48Zm1.94,10.93H604v-8.64h1.83Z"/><path class="cls-1" d="M615.51,194.41h-1.84V189.1a2.39,2.39,0,0,0-.4-1.49,1.56,1.56,0,0,0-1.28-.49,2,2,0,0,0-1.7.69,3.75,3.75,0,0,0-.54,2.3v4.3h-1.84v-8.64h1.44l.26,1.14h.09a2.61,2.61,0,0,1,1.11-1,3.77,3.77,0,0,1,1.59-.33c2.08,0,3.11,1,3.11,3.16Z"/><path class="cls-1" d="M628.2,191.31a2.84,2.84,0,0,1-1.1,2.39,4.76,4.76,0,0,1-3,.87,7.29,7.29,0,0,1-3.17-.6V192.2a8.36,8.36,0,0,0,1.66.58,7.09,7.09,0,0,0,1.64.21,2.64,2.64,0,0,0,1.64-.42,1.37,1.37,0,0,0,.52-1.13,1.43,1.43,0,0,0-.48-1.09,7.29,7.29,0,0,0-2-1,5.24,5.24,0,0,1-2.2-1.45,3,3,0,0,1-.65-1.95,2.74,2.74,0,0,1,1-2.25,4.21,4.21,0,0,1,2.73-.82,8,8,0,0,1,3.26.72l-.59,1.52a7.09,7.09,0,0,0-2.72-.64,2.14,2.14,0,0,0-1.38.39,1.32,1.32,0,0,0-.46,1.05,1.53,1.53,0,0,0,.18.76,2,2,0,0,0,.62.6,11.66,11.66,0,0,0,1.55.74,8.07,8.07,0,0,1,1.84,1,2.83,2.83,0,0,1,.86,1A3.11,3.11,0,0,1,628.2,191.31Z"/><path class="cls-1" d="M633.67,194.57a4.16,4.16,0,0,1-3.15-1.18,4.44,4.44,0,0,1-1.14-3.23,4.93,4.93,0,0,1,1.06-3.33,3.63,3.63,0,0,1,2.9-1.21,3.53,3.53,0,0,1,2.7,1,4,4,0,0,1,1,2.86v1h-5.76a2.88,2.88,0,0,0,.68,1.93,2.38,2.38,0,0,0,1.81.68,6.64,6.64,0,0,0,2.84-.63V194a5.46,5.46,0,0,1-1.36.46A8.16,8.16,0,0,1,633.67,194.57Zm-.33-7.56a1.86,1.86,0,0,0-1.41.55,2.61,2.61,0,0,0-.62,1.62h3.92a2.37,2.37,0,0,0-.52-1.62A1.74,1.74,0,0,0,633.34,187Z"/><path class="cls-1" d="M643.09,185.62a3.88,3.88,0,0,1,.91.08l-.18,1.71a3.1,3.1,0,0,0-.81-.1,2.34,2.34,0,0,0-1.78.72,2.59,2.59,0,0,0-.69,1.87v4.51h-1.83v-8.64h1.43l.25,1.53h.09a3.42,3.42,0,0,1,1.12-1.23A2.68,2.68,0,0,1,643.09,185.62Z"/><path class="cls-1" d="M647.8,194.41l-3.28-8.64h1.94l1.76,5a9.75,9.75,0,0,1,.54,2h.07a12.52,12.52,0,0,1,.54-2l1.76-5h2l-3.29,8.64Z"/><path class="cls-1" d="M657.6,194.57a4.16,4.16,0,0,1-3.15-1.18,4.44,4.44,0,0,1-1.14-3.23,4.88,4.88,0,0,1,1.06-3.33,3.62,3.62,0,0,1,2.89-1.21,3.53,3.53,0,0,1,2.71,1,4,4,0,0,1,1,2.86v1H655.2a2.88,2.88,0,0,0,.68,1.93,2.38,2.38,0,0,0,1.81.68,6.38,6.38,0,0,0,1.42-.15,6.61,6.61,0,0,0,1.42-.48V194a5.46,5.46,0,0,1-1.36.46A8.23,8.23,0,0,1,657.6,194.57Zm-.34-7.56a1.84,1.84,0,0,0-1.4.55,2.67,2.67,0,0,0-.63,1.62h3.93a2.47,2.47,0,0,0-.52-1.62A1.75,1.75,0,0,0,657.26,187Z"/><path class="cls-1" d="M667,185.62a3.88,3.88,0,0,1,.91.08l-.18,1.71a3.1,3.1,0,0,0-.81-.1,2.36,2.36,0,0,0-1.79.72,2.62,2.62,0,0,0-.68,1.87v4.51h-1.84v-8.64h1.44l.24,1.53h.1a3.33,3.33,0,0,1,1.12-1.23A2.66,2.66,0,0,1,667,185.62Z"/><line class="cls-2" x1="116.15" y1="134.93" x2="293.12" y2="134.93"/><polygon class="cls-1" points="120.14 138.32 116.75 134.93 120.14 131.54 117.26 131.54 113.87 134.93 117.26 138.32 120.14 138.32"/><line class="cls-2" x1="113.87" y1="150.26" x2="290.83" y2="150.26"/><polygon class="cls-1" points="286.85 153.65 290.24 150.26 286.85 146.87 289.73 146.87 293.12 150.26 289.73 153.65 286.85 153.65"/><line class="cls-2" x1="126.26" y1="32.42" x2="294.04" y2="103.45"/><polygon class="cls-1" points="128.61 37.1 126.81 32.65 131.25 30.85 128.6 29.73 124.16 31.53 125.96 35.98 128.61 37.1"/><line class="cls-2" x1="118.18" y1="45.65" x2="285.95" y2="116.68"/><polygon class="cls-1" points="280.96 118.25 285.41 116.45 283.61 112 286.26 113.13 288.06 117.57 283.61 119.37 280.96 118.25"/><line class="cls-2" x1="561.31" y1="134.83" x2="402.73" y2="134.83"/><polygon class="cls-1" points="557.33 131.44 560.72 134.83 557.33 138.22 560.21 138.22 563.6 134.83 560.21 131.44 557.33 131.44"/><line class="cls-2" x1="563.6" y1="150.26" x2="405.02" y2="150.26"/><polygon class="cls-1" points="409 146.87 405.61 150.26 409 153.65 406.12 153.65 402.73 150.26 406.12 146.87 409 146.87"/><path class="cls-1" d="M44.39,194.41H37.93V183h6.46v1.58H39.8v3.11h4.3v1.56H39.8v3.59h4.59Z"/><path class="cls-1" d="M53.72,194.41H51.87V189.1a2.32,2.32,0,0,0-.4-1.49,1.55,1.55,0,0,0-1.28-.49,2,2,0,0,0-1.7.69,3.75,3.75,0,0,0-.54,2.3v4.3H46.12v-8.64h1.43l.26,1.14h.09A2.67,2.67,0,0,1,49,186a3.78,3.78,0,0,1,1.6-.33q3.11,0,3.11,3.16Z"/><path class="cls-1" d="M58.76,194.57a3,3,0,0,1-2.52-1.17,5.23,5.23,0,0,1-.91-3.29,5.3,5.3,0,0,1,.92-3.31,3,3,0,0,1,2.54-1.18,3,3,0,0,1,2.59,1.26h.1a11,11,0,0,1-.14-1.47v-3.15h1.85v12.15H61.75l-.32-1.13h-.09A2.92,2.92,0,0,1,58.76,194.57Zm.49-1.48a2,2,0,0,0,1.65-.64,3.38,3.38,0,0,0,.53-2.07v-.25a3.88,3.88,0,0,0-.53-2.32,2,2,0,0,0-1.66-.69,1.7,1.7,0,0,0-1.5.78,4,4,0,0,0-.52,2.24,3.9,3.9,0,0,0,.51,2.19A1.7,1.7,0,0,0,59.25,193.09Z"/><path class="cls-1" d="M78.32,183v7.39a4.4,4.4,0,0,1-.54,2.22,3.7,3.7,0,0,1-1.57,1.46,5.51,5.51,0,0,1-2.46.51,4.61,4.61,0,0,1-3.31-1.12,4.11,4.11,0,0,1-1.18-3.1V183h1.88v7.23a2.9,2.9,0,0,0,.66,2.09,2.71,2.71,0,0,0,2,.67c1.76,0,2.64-.93,2.64-2.78V183Z"/><path class="cls-1" d="M86.38,192a2.26,2.26,0,0,1-.92,1.94,4.37,4.37,0,0,1-2.64.68,6.27,6.27,0,0,1-2.78-.52v-1.59a6.8,6.8,0,0,0,2.84.7c1.13,0,1.69-.34,1.69-1a.85.85,0,0,0-.18-.55,2.48,2.48,0,0,0-.62-.45,10,10,0,0,0-1.2-.53,5.65,5.65,0,0,1-2-1.16A2.12,2.12,0,0,1,80,188a2,2,0,0,1,.89-1.72,4.26,4.26,0,0,1,2.44-.61,6.93,6.93,0,0,1,2.88.61l-.6,1.39a6.29,6.29,0,0,0-2.35-.58c-1,0-1.45.28-1.45.83a.85.85,0,0,0,.38.69,8.82,8.82,0,0,0,1.65.77,7.28,7.28,0,0,1,1.56.76,2.2,2.2,0,0,1,.71.79A2.25,2.25,0,0,1,86.38,192Z"/><path class="cls-1" d="M91.72,194.57a4.17,4.17,0,0,1-3.16-1.18,4.47,4.47,0,0,1-1.13-3.23,4.92,4.92,0,0,1,1-3.33,3.63,3.63,0,0,1,2.9-1.21,3.53,3.53,0,0,1,2.7,1,4,4,0,0,1,1,2.86v1H89.32a2.78,2.78,0,0,0,.68,1.93,2.36,2.36,0,0,0,1.8.68,6.47,6.47,0,0,0,1.43-.15,6.8,6.8,0,0,0,1.42-.48V194a5.6,5.6,0,0,1-1.36.46A8.3,8.3,0,0,1,91.72,194.57ZM91.38,187a1.84,1.84,0,0,0-1.4.55,2.67,2.67,0,0,0-.63,1.62h3.92a2.41,2.41,0,0,0-.51-1.62A1.78,1.78,0,0,0,91.38,187Z"/><path class="cls-1" d="M101.13,185.62a4,4,0,0,1,.92.08l-.18,1.71a3.23,3.23,0,0,0-.82-.1,2.34,2.34,0,0,0-1.78.72,2.59,2.59,0,0,0-.69,1.87v4.51H96.75v-8.64h1.44l.24,1.53h.09a3.42,3.42,0,0,1,1.12-1.23A2.68,2.68,0,0,1,101.13,185.62Z"/><rect class="cls-3" x="34.79" y="116.1" width="69.32" height="47.77" rx="1.13" ry="1.13"/><path class="cls-1" d="M28.17,161.61c.41,3.14,2.59,5.56,5.2,5.56h71.8c2.62,0,4.8-2.42,5.21-5.56Z"/><rect class="cls-4" x="578.16" y="125.03" width="82.99" height="30" rx="0.94" ry="0.94"/><line class="cls-4" x1="619.65" y1="134.83" x2="619.65" y2="145.22"/><line class="cls-4" x1="626.88" y1="134.83" x2="626.88" y2="145.22"/><line class="cls-4" x1="634.12" y1="134.83" x2="634.12" y2="145.22"/><line class="cls-4" x1="641.35" y1="134.83" x2="641.35" y2="145.22"/><line class="cls-4" x1="590.72" y1="134.83" x2="590.72" y2="145.22"/><line class="cls-4" x1="597.95" y1="134.83" x2="597.95" y2="145.22"/><line class="cls-4" x1="605.18" y1="134.83" x2="605.18" y2="145.22"/><line class="cls-4" x1="612.42" y1="134.83" x2="612.42" y2="145.22"/><line class="cls-4" x1="648.58" y1="134.83" x2="648.58" y2="145.22"/><line class="cls-4" x1="591.16" y1="161.19" x2="648.14" y2="161.19"/><rect class="cls-5" x="305.31" y="125.03" width="82.99" height="30" rx="0.94" ry="0.94"/><line class="cls-5" x1="346.81" y1="134.83" x2="346.81" y2="145.22"/><line class="cls-5" x1="354.04" y1="134.83" x2="354.04" y2="145.22"/><line class="cls-5" x1="361.27" y1="134.83" x2="361.27" y2="145.22"/><line class="cls-5" x1="368.51" y1="134.83" x2="368.51" y2="145.22"/><line class="cls-5" x1="317.87" y1="134.83" x2="317.87" y2="145.22"/><line class="cls-5" x1="325.11" y1="134.83" x2="325.11" y2="145.22"/><line class="cls-5" x1="332.34" y1="134.83" x2="332.34" y2="145.22"/><line class="cls-5" x1="339.57" y1="134.83" x2="339.57" y2="145.22"/><line class="cls-5" x1="375.74" y1="134.83" x2="375.74" y2="145.22"/><line class="cls-5" x1="318.32" y1="161.19" x2="375.29" y2="161.19"/><path class="cls-1" d="M43.63,81.31H37.17V69.89h6.46v1.58H39v3.11h4.31v1.56H39v3.59h4.59Z"/><path class="cls-1" d="M53,81.31H51.12V76a2.32,2.32,0,0,0-.41-1.49A1.54,1.54,0,0,0,49.44,74a2,2,0,0,0-1.71.69,3.75,3.75,0,0,0-.54,2.3v4.3H45.36V72.67h1.43l.26,1.14h.1a2.61,2.61,0,0,1,1.11-1,3.77,3.77,0,0,1,1.59-.33q3.1,0,3.11,3.16Z"/><path class="cls-1" d="M58,81.47a3,3,0,0,1-2.52-1.17A5.23,5.23,0,0,1,54.57,77a5.3,5.3,0,0,1,.92-3.31A3,3,0,0,1,58,72.52a3,3,0,0,1,2.6,1.26h.09a10.69,10.69,0,0,1-.13-1.47V69.16h1.84V81.31H61l-.32-1.13h-.08A2.94,2.94,0,0,1,58,81.47ZM58.49,80a2,2,0,0,0,1.65-.64,3.3,3.3,0,0,0,.53-2.07V77a3.81,3.81,0,0,0-.53-2.32A2,2,0,0,0,58.48,74,1.67,1.67,0,0,0,57,74.8,4,4,0,0,0,56.46,77,3.9,3.9,0,0,0,57,79.23,1.71,1.71,0,0,0,58.49,80Z"/><path class="cls-1" d="M77.56,69.89v7.39A4.4,4.4,0,0,1,77,79.5,3.64,3.64,0,0,1,75.45,81a5.51,5.51,0,0,1-2.46.51,4.57,4.57,0,0,1-3.3-1.12,4.08,4.08,0,0,1-1.18-3.1V69.89h1.87v7.23A2.9,2.9,0,0,0,71,79.21a2.72,2.72,0,0,0,2,.67c1.76,0,2.64-.93,2.64-2.78V69.89Z"/><path class="cls-1" d="M85.62,78.85a2.28,2.28,0,0,1-.92,2,4.44,4.44,0,0,1-2.64.67A6.27,6.27,0,0,1,79.28,81V79.36a6.83,6.83,0,0,0,2.84.7c1.13,0,1.7-.34,1.7-1a.85.85,0,0,0-.19-.55A2.48,2.48,0,0,0,83,78a11.61,11.61,0,0,0-1.19-.53,5.47,5.47,0,0,1-2-1.16,2.13,2.13,0,0,1-.53-1.5,2,2,0,0,1,.89-1.72,4.26,4.26,0,0,1,2.44-.61,6.78,6.78,0,0,1,2.88.62l-.59,1.38a6.38,6.38,0,0,0-2.36-.58c-1,0-1.45.28-1.45.83a.85.85,0,0,0,.38.69,8.82,8.82,0,0,0,1.65.77,7.79,7.79,0,0,1,1.56.76,2.33,2.33,0,0,1,.72.79A2.38,2.38,0,0,1,85.62,78.85Z"/><path class="cls-1" d="M91,81.47a4.16,4.16,0,0,1-3.15-1.17,4.48,4.48,0,0,1-1.14-3.24,4.92,4.92,0,0,1,1-3.33,3.65,3.65,0,0,1,2.9-1.21,3.53,3.53,0,0,1,2.7,1,3.92,3.92,0,0,1,1,2.86v1H88.56a2.83,2.83,0,0,0,.68,1.93A2.37,2.37,0,0,0,91,80a6.47,6.47,0,0,0,1.43-.15,6.8,6.8,0,0,0,1.42-.48v1.5a5.86,5.86,0,0,1-1.36.45A8.23,8.23,0,0,1,91,81.47Zm-.34-7.56a1.84,1.84,0,0,0-1.4.55,2.67,2.67,0,0,0-.63,1.62h3.92A2.41,2.41,0,0,0,92,74.46,1.78,1.78,0,0,0,90.62,73.91Z"/><path class="cls-1" d="M100.37,72.52a4,4,0,0,1,.92.08l-.18,1.71a3.12,3.12,0,0,0-.82-.1,2.35,2.35,0,0,0-1.78.72,2.58,2.58,0,0,0-.68,1.87v4.51H96V72.67h1.44l.24,1.53h.09A3.42,3.42,0,0,1,98.88,73,2.71,2.71,0,0,1,100.37,72.52Z"/><rect class="cls-3" x="34.37" y="3" width="69.32" height="47.77" rx="1.13" ry="1.13"/><path class="cls-1" d="M27.74,48.51c.41,3.14,2.59,5.56,5.21,5.56h71.8c2.61,0,4.79-2.42,5.2-5.56Z"/><path class="cls-1" d="M43.63,297.76H37.17V286.34h6.46v1.57H39V291h4.31v1.57H39v3.58h4.59Z"/><path class="cls-1" d="M53,297.76H51.12v-5.32a2.32,2.32,0,0,0-.41-1.49,1.54,1.54,0,0,0-1.27-.49,2,2,0,0,0-1.71.69,3.77,3.77,0,0,0-.54,2.3v4.31H45.36v-8.64h1.43l.26,1.13h.1a2.53,2.53,0,0,1,1.11-.95,3.63,3.63,0,0,1,1.59-.34C51.92,289,53,290,53,292.12Z"/><path class="cls-1" d="M58,297.91a3,3,0,0,1-2.52-1.17,5.23,5.23,0,0,1-.91-3.29,5.32,5.32,0,0,1,.92-3.31A3,3,0,0,1,58,289a3,3,0,0,1,2.6,1.26h.09a10.69,10.69,0,0,1-.13-1.47V285.6h1.84v12.16H61l-.32-1.14h-.08A2.94,2.94,0,0,1,58,297.91Zm.49-1.48a2,2,0,0,0,1.65-.64,3.28,3.28,0,0,0,.53-2.06v-.26a3.83,3.83,0,0,0-.53-2.32,2,2,0,0,0-1.66-.69,1.66,1.66,0,0,0-1.49.79,5,5,0,0,0,0,4.43A1.72,1.72,0,0,0,58.49,296.43Z"/><path class="cls-1" d="M77.56,286.34v7.39a4.39,4.39,0,0,1-.54,2.21,3.64,3.64,0,0,1-1.57,1.46,5.51,5.51,0,0,1-2.46.51,4.57,4.57,0,0,1-3.3-1.12,4.06,4.06,0,0,1-1.18-3.1v-7.35h1.87v7.22a2.9,2.9,0,0,0,.66,2.09,2.68,2.68,0,0,0,2,.67c1.76,0,2.64-.93,2.64-2.77v-7.21Z"/><path class="cls-1" d="M85.62,295.3a2.27,2.27,0,0,1-.92,1.94,4.44,4.44,0,0,1-2.64.67,6.27,6.27,0,0,1-2.78-.52V295.8a6.86,6.86,0,0,0,2.84.71c1.13,0,1.7-.34,1.7-1a.83.83,0,0,0-.19-.54,2.25,2.25,0,0,0-.62-.46,11.61,11.61,0,0,0-1.19-.53,5.48,5.48,0,0,1-2-1.15,2.16,2.16,0,0,1-.53-1.5,2,2,0,0,1,.89-1.73A4.26,4.26,0,0,1,82.6,289a6.94,6.94,0,0,1,2.88.62L84.89,291a6.38,6.38,0,0,0-2.36-.58c-1,0-1.45.28-1.45.83a.85.85,0,0,0,.38.69,8.2,8.2,0,0,0,1.65.77,7.79,7.79,0,0,1,1.56.76,2.33,2.33,0,0,1,.72.79A2.39,2.39,0,0,1,85.62,295.3Z"/><path class="cls-1" d="M91,297.91a4.16,4.16,0,0,1-3.15-1.17,4.48,4.48,0,0,1-1.14-3.24,4.92,4.92,0,0,1,1-3.33,3.65,3.65,0,0,1,2.9-1.21,3.56,3.56,0,0,1,2.7,1,3.92,3.92,0,0,1,1,2.86v1H88.56a2.83,2.83,0,0,0,.68,1.93,2.37,2.37,0,0,0,1.8.68,7.15,7.15,0,0,0,1.43-.14,8.2,8.2,0,0,0,1.42-.48v1.49a5.86,5.86,0,0,1-1.36.45A8.23,8.23,0,0,1,91,297.91Zm-.34-7.56a1.84,1.84,0,0,0-1.4.56,2.64,2.64,0,0,0-.63,1.61h3.92A2.41,2.41,0,0,0,92,290.9,1.78,1.78,0,0,0,90.62,290.35Z"/><path class="cls-1" d="M100.37,289a4.62,4.62,0,0,1,.92.08l-.18,1.71a3.62,3.62,0,0,0-.82-.09,2.34,2.34,0,0,0-1.78.71,2.59,2.59,0,0,0-.68,1.87v4.52H96v-8.64h1.44l.24,1.52h.09a3.5,3.5,0,0,1,1.12-1.23A2.71,2.71,0,0,1,100.37,289Z"/><rect class="cls-3" x="34.37" y="219.44" width="69.32" height="47.77" rx="1.13" ry="1.13"/><path class="cls-1" d="M27.74,265c.41,3.14,2.59,5.56,5.21,5.56h71.8c2.61,0,4.79-2.42,5.2-5.56Z"/><line class="cls-2" x1="285.95" y1="173.27" x2="118.18" y2="244.3"/><polygon class="cls-1" points="280.96 171.7 285.41 173.5 283.61 177.94 286.26 176.82 288.06 172.38 283.61 170.58 280.96 171.7"/><line class="cls-2" x1="294.04" y1="186.5" x2="126.26" y2="257.52"/><polygon class="cls-1" points="128.61 252.85 126.81 257.29 131.25 259.09 128.6 260.22 124.16 258.42 125.96 253.97 128.61 252.85"/></g></svg>